<svg xmlns="http://www.w3.org/2000/svg" xmlns:xlink="http://www.w3.org/1999/xlink" fill="none" version="1.1" width="97" height="97" viewBox="0 0 97 97"><clipPath id="master_svg0_5_0521"><rect x="14" y="14" width="69" height="69" rx="0"/></clipPath><g style="mix-blend-mode:passthrough"><rect x="0" y="0" width="97" height="97" rx="20" fill="#409EFF" fill-opacity="1"/><g><g clip-path="url(#master_svg0_5_0521)" style="mix-blend-mode:passthrough"><g><g style="mix-blend-mode:passthrough"><path d="M74.3642,61.5595C74.34700000000001,64.063,73.07050000000001,64.62270000000001,73.07050000000001,64.62270000000001C73.07050000000001,64.62270000000001,51.1037,77.6003,49.672,78.4111C48.2576,79.0329,47.313199999999995,78.4111,47.313199999999995,78.4111C47.313199999999995,78.4111,24.32859,64.78139999999999,23.48339,64.1867C22.6467874,63.5868,22.625226272,62.6523,22.625226272,62.6523C22.625226272,62.6523,22.6510833,35.662099999999995,22.625226272,34.4146C22.6036647,33.162800000000004,24.13024,32.2238,24.13024,32.2238C24.13024,32.2238,47.0976,18.651445,47.0976,18.651445C48.512,17.888819,49.8876,18.651445,49.8876,18.651445C49.8876,18.651445,70.1815,30.7118,72.42830000000001,32.0078C74.63589999999999,33.079,74.3642,35.287400000000005,74.3642,35.287400000000005C74.3642,35.287400000000005,74.3728,59.2275,74.3642,61.5595C74.3642,61.5595,74.3642,61.5595,74.3642,61.5595C74.3642,61.5595,74.3642,61.5595,74.3642,61.5595ZM65.1877,34.471900000000005C60.4829,31.7036,49.4047,25.14014,49.4047,25.14014C49.4047,25.14014,48.3223,24.54497,47.214,25.14014C47.214,25.14014,29.17991,35.7633,29.17991,35.7633C29.17991,35.7633,27.98544,36.4994,27.99833,37.4737C28.01989,38.4523,27.99833,59.5756,27.99833,59.5756C27.99833,59.5756,28.01562,60.3074,28.675440000000002,60.7746C29.335160000000002,61.2418,47.3822,71.9091,47.3822,71.9091C47.3822,71.9091,48.1282,72.3943,49.2364,71.9091C50.3577,71.2747,67.607,61.1185,67.607,61.1185C67.607,61.1185,68.6118,60.6776,68.62039999999999,58.7161C68.62039999999999,58.7161,68.62899999999999,53.2016,68.62899999999999,53.2016C68.62899999999999,53.2016,48.318,65.7776,48.318,65.7776C48.318,65.7776,48.318,60.9686,48.318,60.9686C48.318,58.9894,49.8143,57.6847,49.8143,57.6847C49.8143,57.6847,67.7795,46.6205,67.7795,46.6205C68.4565,45.8975,68.5988,44.7382,68.62469999999999,44.3019C68.62469999999999,44.3019,68.62469999999999,39.4221,68.62469999999999,39.4221C68.62469999999999,39.4221,48.3136,51.9983,48.3136,51.9983C48.3136,51.9983,48.3136,46.968599999999995,48.3136,46.968599999999995C48.3136,44.985,49.5987,44.1211,49.5987,44.1211C49.5987,44.1211,65.19210000000001,34.4675,65.19210000000001,34.4675C65.19210000000001,34.4675,65.1877,34.471900000000005,65.1877,34.471900000000005C65.1877,34.471900000000005,65.1877,34.471900000000005,65.1877,34.471900000000005Z" fill="#FFFFFF" fill-opacity="1"/></g></g></g></g></g></svg>